# xmcd
# 
# Track frame offsets:
#     150
#     19037
#     36644
#     52206
# 
# Disc length: 922
# 
# Revision: 3
# Processed by: cddbd v1.5.2PL0 Copyright (c) Steve Scherf et al.
# Submitted via: fre:ac v1.0.31
# 
DISCID=35039804
DTITLE=Die Inselfeger - (Maxi) Country Roads
DYEAR=2001
DGENRE=Pop
TTITLE0=Country Roads (Fox Mix)
TTITLE1=Country Roads (Tränen-in-die-Augen Mix)
TTITLE2=Country Roads (Wunderkerzen Mix)
TTITLE3=Ich spiel nicht mehr den Hampelmann
EXTD=
EXTT0=
EXTT1=
EXTT2=
EXTT3=
PLAYORDER=
